<?xml version="1.0" standalone="no"?>
<!DOCTYPE svg PUBLIC "-//W3C//DTD SVG 20010904//EN"
 "http://www.w3.org/TR/2001/REC-SVG-20010904/DTD/svg10.dtd">
<svg version="1.0" xmlns="http://www.w3.org/2000/svg"
 width="700.000000pt" height="700.000000pt" viewBox="0 0 700.000000 700.000000"
 preserveAspectRatio="xMidYMid meet">
<metadata>
Created by potrace 1.14, written by Peter Selinger 2001-2017
</metadata>
<g transform="translate(0.000000,700.000000) scale(0.100000,-0.100000)"
fill="#000000" stroke="none">
<path d="M0 3500 l0 -3500 3500 0 3500 0 0 3500 0 3500 -3500 0 -3500 0 0
-3500z m3662 2270 c461 -27 898 -149 1161 -324 193 -128 249 -247 176 -374
-80 -140 -211 -158 -674 -93 -289 41 -411 51 -616 51 -210 0 -449 -21 -614
-55 -683 -138 -1062 -593 -1115 -1338 -6 -78 -12 -152 -15 -165 -7 -30 -96
-87 -169 -108 -79 -22 -226 -15 -314 16 -154 54 -233 155 -251 320 -11 95 0
254 24 371 106 510 560 1116 1053 1406 284 167 641 270 1019 292 71 5 137 9
148 9 11 1 95 -3 187 -8z m1744 -1069 c23 -10 53 -34 67 -52 74 -100 227 -495
227 -589 0 -56 -37 -95 -101 -109 -34 -8 -387 -11 -1097 -11 -889 0 -1056 -3
-1110 -15 -186 -44 -286 -163 -332 -398 -8 -39 -21 -69 -40 -90 l-28 -32 -300
-3 c-336 -3 -357 0 -387 59 -22 42 -22 163 1 272 96 473 463 859 901 948 141
29 378 36 1318 37 801 1 842 1 881 -17z m-938 -996 c79 -19 128 -44 169 -87
43 -45 55 -80 55 -164 -1 -141 -67 -310 -195 -497 -204 -299 -488 -518 -796
-615 l-86 -27 -980 -3 c-697 -2 -993 0 -1025 8 -91 23 -128 69 -211 267 -124
292 -149 407 -98 458 14 15 43 30 65 35 22 6 502 10 1100 10 674 0 1081 4
1115 10 113 21 222 99 261 187 10 22 29 80 43 128 14 47 34 103 44 124 22 42
84 102 131 126 97 50 285 69 408 40z m1249 -101 c45 -34 56 -67 54 -172 -5
-377 -129 -803 -324 -1119 -311 -501 -874 -895 -1467 -1027 -187 -41 -337 -57
-550 -58 -213 0 -310 12 -507 63 -315 82 -631 240 -872 439 -44 36 -86 77 -95
92 -34 56 -11 134 48 162 30 14 89 16 483 17 246 0 626 4 843 9 343 8 408 12
495 30 286 61 528 200 748 430 253 264 396 572 422 910 15 194 33 227 132 240
32 5 171 7 310 7 238 -2 253 -3 280 -23z"/>
</g>
</svg>
