<?xml version="1.0" encoding="UTF-8"?>
<svg xmlns="http://www.w3.org/2000/svg" version="1.1" viewBox="0 0 1000 1000">
  <defs>
    <style>
      .cls-1 {
        fill: #f2f2f2;
      }

      .cls-2 {
        fill: #0235e7;
      }
    </style>
  </defs>
  <!-- Generator: Adobe Illustrator 28.7.1, SVG Export Plug-In . SVG Version: 1.2.0 Build 142)  -->
  <g>
    <g id="Lag_1">
      <rect class="cls-2" width="1000" height="1000"/>
      <g>
        <g>
          <path class="cls-1" d="M282.02,503.24c-1.34,1.81-3.32,4.18-6.06,6.53-22.7,19.5-70.43,14.83-90.85-10.4-2.82-3.48-13.29-17.45-9.24-58.5,4.2-42.58,20.52-78.74,41.35-110.84,14.1-21.73,51.97-78.77,117.38-115.41,154.06-86.28,379.04-13.44,384.51,43.74.95,9.92-4.84,17.82-6.82,20.53-27.02,36.87-102.11-4.31-208.44,2.85-40.43,2.73-108.15,7.29-158.71,53.13-61.19,55.47-63.5,140.79-63.11,168.36Z"/>
          <path class="cls-1" d="M458.26,823.82c-65.51-9.12-125.7-35.31-175.33-79.41-3.65-3.35-6.39-7.59-6.22-12.6.99-12.25,8.82-17.72,20.48-17.48,75.11-.96,150.41.28,225.47-2.3,58.4-5.13,107.61-33.54,145.52-81.3,27.53-33.88,43.43-74.85,45.89-118.36.89-8.35.46-19.69,6.57-25.76,2.81-2.61,5.93-3.46,12.93-4.05,22.11-1.58,40.71-2.28,69.94-.74,5.15.38,9.16.73,13.35,3.15,7.12,4.14,8.42,13.2,8.13,21.18-3.54,110.85-51.89,198.64-137.1,256.87-67.71,48.46-147.11,67.36-229.44,60.83l-.2-.02Z"/>
          <path class="cls-1" d="M645.38,436.72c-46.04-.02-92.07-.14-138.11.02-41.21.14-63.61,18.72-69.9,58.99-2.06,13.16-8.52,18.98-21.24,18.98-22.72,0-45.44.04-68.16-.04-16.09-.06-22.17-8.98-21.57-24.17,3.05-76.46,65.74-157.65,153.58-162.34,93.2-4.98,186.37-.92,279.53-2.57,12.52-.22,20.79,5.43,26.84,16.91,11.16,21.15,19.05,43.46,26.1,66.1,5.9,18.96-1.2,27.96-21.79,28.06-48.43.23-96.85.07-145.28.06Z"/>
          <path class="cls-1" d="M490.73,670.68c-82.37-.26-164.74-1.04-247.09-.38-19.07.15-29.58-6.69-36.95-23.76-8.27-19.14-16.67-38.13-22.65-58.14-6.15-20.6-.31-29.2,21.52-29.61,32.81-.62,65.64-.6,98.46-.85,65.78.19,131.56,1.01,197.33.29,9.88-.11,23.34-2.57,35.31-12.19,21.85-17.56,14.3-42.3,29.97-59.52,22.54-24.76,83.92-23.87,99.44.59,25.23,39.78-54.72,167.28-155.68,182.16-.83.12-7.09,1.45-19.65,1.41Z"/>
        </g>
        <path class="cls-1" d="M674.05,237.75"/>
      </g>
    </g>
  </g>
</svg>